<svg width="152" height="28" viewBox="0 0 152 28" fill="none" xmlns="http://www.w3.org/2000/svg">
<g clip-path="url(#clip0_56_3248)">
<rect width="27.792" height="27.792" rx="6" fill="#0B68F7"/>
<path d="M13.6748 6.34898L13.6758 6.34995L13.6777 6.34898L13.6768 6.34995C13.885 6.35317 14.0869 6.42218 14.252 6.54917L14.3672 6.65367C14.4733 6.76667 14.5515 6.90432 14.5938 7.05503L17.4717 17.2904L18.8877 13.5169L18.9492 13.3832C19.0208 13.2555 19.1209 13.145 19.2422 13.0609L19.3691 12.9867C19.5005 12.9225 19.6455 12.8891 19.793 12.889H42.1826C42.4391 12.8891 42.6848 12.9909 42.8662 13.1722L42.9307 13.2435C43.0717 13.4157 43.1504 13.6323 43.1504 13.8568C43.1503 14.0811 43.0716 14.2971 42.9307 14.4691L42.8662 14.5404C42.6848 14.7217 42.4391 14.8235 42.1826 14.8236H20.4639L18.2461 20.7367C18.1924 20.8798 18.1058 21.0073 17.9941 21.1097L17.875 21.2035C17.7474 21.288 17.6018 21.3404 17.4512 21.3578L17.2998 21.3636C17.147 21.3572 16.9983 21.3148 16.8662 21.2406L16.7402 21.1556C16.6202 21.0607 16.5253 20.9389 16.4619 20.8011L16.4092 20.6585L13.6123 10.7152L12.541 14.1449C12.4949 14.2926 12.4142 14.4263 12.3066 14.5355L12.1904 14.6361C12.0661 14.7275 11.9224 14.7875 11.7715 14.8119L11.6182 14.8236H-9.18262C-9.40715 14.8236 -9.62375 14.7459 -9.7959 14.6048L-9.86621 14.5404C-10.0476 14.359 -10.1503 14.1133 -10.1504 13.8568C-10.1504 13.6002 -10.0477 13.3537 -9.86621 13.1722L-9.7959 13.1078C-9.62376 12.9667 -9.40712 12.8891 -9.18262 12.889H10.9072L12.7383 7.02769L12.7959 6.88316C12.8653 6.74437 12.9677 6.6234 13.0947 6.5316L13.2275 6.45152C13.3648 6.38264 13.5169 6.34828 13.6719 6.34995L13.6729 6.34898H13.6748Z" fill="white" stroke="white" stroke-width="0.3"/>
</g>
<path d="M39.0859 22.116C38.1472 22.116 37.3186 21.8887 36.5999 21.434C35.8959 20.9794 35.3459 20.334 34.9499 19.498C34.5539 18.6474 34.3559 17.65 34.3559 16.506C34.3559 15.3474 34.5539 14.3574 34.9499 13.536C35.3459 12.7 35.8959 12.0547 36.5999 11.6C37.3186 11.1454 38.1472 10.918 39.0859 10.918C39.9806 10.918 40.7579 11.138 41.4179 11.578C42.0926 12.018 42.5472 12.5974 42.7819 13.316H42.5399V7.59602C42.5399 7.14135 42.6572 6.79668 42.8919 6.56202C43.1266 6.32735 43.4639 6.21002 43.9039 6.21002C44.3439 6.21002 44.6812 6.32735 44.9159 6.56202C45.1652 6.79668 45.2899 7.14135 45.2899 7.59602V20.664C45.2899 21.1187 45.1726 21.4707 44.9379 21.72C44.7032 21.9547 44.3659 22.072 43.9259 22.072C43.4859 22.072 43.1486 21.9547 42.9139 21.72C42.6792 21.4707 42.5619 21.1187 42.5619 20.664V18.948L42.8039 19.608C42.5839 20.3707 42.1366 20.9794 41.4619 21.434C40.7872 21.8887 39.9952 22.116 39.0859 22.116ZM39.8559 20.026C40.3986 20.026 40.8752 19.894 41.2859 19.63C41.6966 19.366 42.0119 18.9774 42.2319 18.464C42.4666 17.936 42.5839 17.2834 42.5839 16.506C42.5839 15.3327 42.3346 14.46 41.8359 13.888C41.3372 13.3014 40.6772 13.008 39.8559 13.008C39.3132 13.008 38.8366 13.14 38.4259 13.404C38.0152 13.6534 37.6926 14.042 37.4579 14.57C37.2379 15.0834 37.1279 15.7287 37.1279 16.506C37.1279 17.6647 37.3772 18.5447 37.8759 19.146C38.3746 19.7327 39.0346 20.026 39.8559 20.026ZM49.5493 22.072C49.0946 22.072 48.7426 21.9547 48.4933 21.72C48.2586 21.4707 48.1413 21.1187 48.1413 20.664V12.348C48.1413 11.8934 48.2586 11.5487 48.4933 11.314C48.728 11.0794 49.058 10.962 49.4833 10.962C49.9086 10.962 50.2386 11.0794 50.4733 11.314C50.708 11.5487 50.8253 11.8934 50.8253 12.348V13.734H50.6053C50.8106 12.854 51.214 12.1867 51.8153 11.732C52.4166 11.2774 53.216 11.006 54.2133 10.918C54.5213 10.8887 54.7633 10.9694 54.9393 11.16C55.13 11.336 55.24 11.6147 55.2693 11.996C55.2986 12.3627 55.2106 12.6634 55.0053 12.898C54.8146 13.118 54.5213 13.25 54.1253 13.294L53.6413 13.338C52.7466 13.426 52.072 13.7047 51.6173 14.174C51.1626 14.6287 50.9353 15.274 50.9353 16.11V20.664C50.9353 21.1187 50.818 21.4707 50.5833 21.72C50.3486 21.9547 50.004 22.072 49.5493 22.072ZM57.5824 22.006C57.0837 22.006 56.6804 21.852 56.3724 21.544C56.0791 21.236 55.9324 20.84 55.9324 20.356C55.9324 19.8867 56.0791 19.5054 56.3724 19.212C56.6804 18.904 57.0837 18.75 57.5824 18.75C58.0957 18.75 58.4917 18.904 58.7704 19.212C59.0637 19.5054 59.2104 19.8867 59.2104 20.356C59.2104 20.84 59.0637 21.236 58.7704 21.544C58.4917 21.852 58.0957 22.006 57.5824 22.006ZM65.7219 22.116C65.0912 22.116 64.4239 22.05 63.7199 21.918C63.0159 21.786 62.3852 21.5587 61.8279 21.236C61.5932 21.0894 61.4245 20.9207 61.3219 20.73C61.2339 20.5247 61.1972 20.3267 61.2119 20.136C61.2412 19.9307 61.3145 19.7547 61.4319 19.608C61.5639 19.4614 61.7252 19.366 61.9159 19.322C62.1212 19.278 62.3412 19.3147 62.5759 19.432C63.1625 19.7107 63.7125 19.9087 64.2259 20.026C64.7392 20.1287 65.2452 20.18 65.7439 20.18C66.4479 20.18 66.9685 20.0627 67.3059 19.828C67.6579 19.5787 67.8339 19.256 67.8339 18.86C67.8339 18.5227 67.7165 18.266 67.4819 18.09C67.2619 17.8994 66.9245 17.76 66.4699 17.672L64.2699 17.254C63.3605 17.078 62.6639 16.748 62.1799 16.264C61.7105 15.7654 61.4759 15.1274 61.4759 14.35C61.4759 13.646 61.6665 13.0374 62.0479 12.524C62.4439 12.0107 62.9865 11.6147 63.6759 11.336C64.3652 11.0574 65.1572 10.918 66.0519 10.918C66.6972 10.918 67.2985 10.9914 67.8559 11.138C68.4279 11.27 68.9779 11.4827 69.5059 11.776C69.7259 11.8934 69.8725 12.0474 69.9459 12.238C70.0339 12.4287 70.0559 12.6267 70.0119 12.832C69.9679 13.0227 69.8799 13.1987 69.7479 13.36C69.6159 13.5067 69.4472 13.602 69.2419 13.646C69.0512 13.6754 68.8312 13.6314 68.5819 13.514C68.1272 13.2794 67.6872 13.1107 67.2619 13.008C66.8512 12.9054 66.4552 12.854 66.0739 12.854C65.3552 12.854 64.8199 12.9787 64.4679 13.228C64.1305 13.4774 63.9619 13.8074 63.9619 14.218C63.9619 14.526 64.0645 14.7827 64.2699 14.988C64.4752 15.1934 64.7905 15.3327 65.2159 15.406L67.4159 15.824C68.3692 16 69.0879 16.3227 69.5719 16.792C70.0705 17.2614 70.3199 17.892 70.3199 18.684C70.3199 19.7547 69.9019 20.598 69.0659 21.214C68.2299 21.8154 67.1152 22.116 65.7219 22.116ZM77.4981 22.116C76.3687 22.116 75.3861 21.8887 74.5501 21.434C73.7141 20.9647 73.0687 20.3047 72.6141 19.454C72.1594 18.6034 71.9321 17.606 71.9321 16.462C71.9321 15.5967 72.0567 14.8267 72.3061 14.152C72.5701 13.4627 72.9441 12.8834 73.4281 12.414C73.9121 11.93 74.4987 11.5634 75.1881 11.314C75.8774 11.05 76.6474 10.918 77.4981 10.918C77.9821 10.918 78.5027 10.984 79.0601 11.116C79.6321 11.248 80.1674 11.468 80.6661 11.776C80.9007 11.9227 81.0547 12.0987 81.1281 12.304C81.2014 12.5094 81.2161 12.722 81.1721 12.942C81.1281 13.1474 81.0327 13.3307 80.8861 13.492C80.7541 13.6387 80.5854 13.734 80.3801 13.778C80.1747 13.8074 79.9474 13.756 79.6981 13.624C79.3754 13.4334 79.0454 13.294 78.7081 13.206C78.3707 13.1034 78.0481 13.052 77.7401 13.052C77.2561 13.052 76.8307 13.1327 76.4641 13.294C76.0974 13.4407 75.7821 13.6607 75.5181 13.954C75.2687 14.2327 75.0781 14.5847 74.9461 15.01C74.8141 15.4354 74.7481 15.9267 74.7481 16.484C74.7481 17.5694 75.0047 18.4274 75.5181 19.058C76.0461 19.674 76.7867 19.982 77.7401 19.982C78.0481 19.982 78.3634 19.938 78.6861 19.85C79.0234 19.762 79.3607 19.6227 79.6981 19.432C79.9474 19.3 80.1674 19.256 80.3581 19.3C80.5634 19.344 80.7321 19.4467 80.8641 19.608C80.9961 19.7547 81.0767 19.938 81.1061 20.158C81.1354 20.3634 81.1061 20.5687 81.0181 20.774C80.9447 20.9794 80.7981 21.148 80.5781 21.28C80.0941 21.5734 79.5807 21.786 79.0381 21.918C78.4954 22.05 77.9821 22.116 77.4981 22.116ZM84.267 22.072C83.827 22.072 83.4897 21.9547 83.255 21.72C83.0204 21.4707 82.903 21.1187 82.903 20.664V7.59602C82.903 7.14135 83.0204 6.79668 83.255 6.56202C83.4897 6.32735 83.827 6.21002 84.267 6.21002C84.707 6.21002 85.0444 6.32735 85.279 6.56202C85.5284 6.79668 85.653 7.14135 85.653 7.59602V13.294H85.345C85.6677 12.5167 86.1664 11.93 86.841 11.534C87.5304 11.1234 88.3077 10.918 89.173 10.918C90.0384 10.918 90.7497 11.0794 91.307 11.402C91.8644 11.7247 92.2824 12.216 92.561 12.876C92.8397 13.5214 92.979 14.3427 92.979 15.34V20.664C92.979 21.1187 92.8617 21.4707 92.627 21.72C92.3924 21.9547 92.055 22.072 91.615 22.072C91.175 22.072 90.8304 21.9547 90.581 21.72C90.3464 21.4707 90.229 21.1187 90.229 20.664V15.472C90.229 14.636 90.0677 14.0274 89.745 13.646C89.437 13.2647 88.953 13.074 88.293 13.074C87.4864 13.074 86.841 13.3307 86.357 13.844C85.8877 14.3427 85.653 15.01 85.653 15.846V20.664C85.653 21.6027 85.191 22.072 84.267 22.072ZM101.074 22.116C99.8568 22.116 98.8082 21.8887 97.9282 21.434C97.0482 20.9794 96.3662 20.334 95.8822 19.498C95.4128 18.662 95.1782 17.672 95.1782 16.528C95.1782 15.4134 95.4055 14.438 95.8602 13.602C96.3295 12.766 96.9675 12.1134 97.7742 11.644C98.5955 11.16 99.5268 10.918 100.568 10.918C101.331 10.918 102.013 11.0427 102.614 11.292C103.23 11.5414 103.751 11.9007 104.176 12.37C104.616 12.8394 104.946 13.4114 105.166 14.086C105.401 14.746 105.518 15.494 105.518 16.33C105.518 16.594 105.423 16.7994 105.232 16.946C105.056 17.078 104.799 17.144 104.462 17.144H97.4002V15.56H103.582L103.23 15.89C103.23 15.2154 103.127 14.6507 102.922 14.196C102.731 13.7414 102.445 13.3967 102.064 13.162C101.697 12.9127 101.235 12.788 100.678 12.788C100.062 12.788 99.5342 12.9347 99.0942 13.228C98.6688 13.5067 98.3388 13.91 98.1042 14.438C97.8842 14.9514 97.7742 15.5674 97.7742 16.286V16.44C97.7742 17.6427 98.0528 18.5447 98.6102 19.146C99.1822 19.7327 100.018 20.026 101.118 20.026C101.499 20.026 101.925 19.982 102.394 19.894C102.878 19.7914 103.333 19.6227 103.758 19.388C104.066 19.212 104.337 19.1387 104.572 19.168C104.807 19.1827 104.99 19.2634 105.122 19.41C105.269 19.5567 105.357 19.74 105.386 19.96C105.415 20.1654 105.371 20.378 105.254 20.598C105.151 20.818 104.968 21.0087 104.704 21.17C104.191 21.4927 103.597 21.7347 102.922 21.896C102.262 22.0427 101.646 22.116 101.074 22.116ZM111.832 22.116C110.893 22.116 110.065 21.8887 109.346 21.434C108.642 20.9794 108.092 20.334 107.696 19.498C107.3 18.6474 107.102 17.65 107.102 16.506C107.102 15.3474 107.3 14.3574 107.696 13.536C108.092 12.7 108.642 12.0547 109.346 11.6C110.065 11.1454 110.893 10.918 111.832 10.918C112.727 10.918 113.504 11.138 114.164 11.578C114.839 12.018 115.293 12.5974 115.528 13.316H115.286V7.59602C115.286 7.14135 115.403 6.79668 115.638 6.56202C115.873 6.32735 116.21 6.21002 116.65 6.21002C117.09 6.21002 117.427 6.32735 117.662 6.56202C117.911 6.79668 118.036 7.14135 118.036 7.59602V20.664C118.036 21.1187 117.919 21.4707 117.684 21.72C117.449 21.9547 117.112 22.072 116.672 22.072C116.232 22.072 115.895 21.9547 115.66 21.72C115.425 21.4707 115.308 21.1187 115.308 20.664V18.948L115.55 19.608C115.33 20.3707 114.883 20.9794 114.208 21.434C113.533 21.8887 112.741 22.116 111.832 22.116ZM112.602 20.026C113.145 20.026 113.621 19.894 114.032 19.63C114.443 19.366 114.758 18.9774 114.978 18.464C115.213 17.936 115.33 17.2834 115.33 16.506C115.33 15.3327 115.081 14.46 114.582 13.888C114.083 13.3014 113.423 13.008 112.602 13.008C112.059 13.008 111.583 13.14 111.172 13.404C110.761 13.6534 110.439 14.042 110.204 14.57C109.984 15.0834 109.874 15.7287 109.874 16.506C109.874 17.6647 110.123 18.5447 110.622 19.146C111.121 19.7327 111.781 20.026 112.602 20.026ZM124.781 22.116C123.887 22.116 123.146 21.9547 122.559 21.632C121.973 21.2947 121.533 20.796 121.239 20.136C120.961 19.476 120.821 18.6547 120.821 17.672V12.348C120.821 11.8787 120.939 11.534 121.173 11.314C121.408 11.0794 121.745 10.962 122.185 10.962C122.625 10.962 122.963 11.0794 123.197 11.314C123.447 11.534 123.571 11.8787 123.571 12.348V17.716C123.571 18.4787 123.725 19.0434 124.033 19.41C124.341 19.7767 124.833 19.96 125.507 19.96C126.241 19.96 126.842 19.7107 127.311 19.212C127.781 18.6987 128.015 18.024 128.015 17.188V12.348C128.015 11.8787 128.133 11.534 128.367 11.314C128.602 11.0794 128.939 10.962 129.379 10.962C129.819 10.962 130.157 11.0794 130.391 11.314C130.641 11.534 130.765 11.8787 130.765 12.348V20.664C130.765 21.6027 130.318 22.072 129.423 22.072C128.998 22.072 128.668 21.9547 128.433 21.72C128.199 21.4707 128.081 21.1187 128.081 20.664V18.992L128.389 19.652C128.081 20.444 127.612 21.0527 126.981 21.478C126.365 21.9034 125.632 22.116 124.781 22.116ZM137.302 22.116C136.084 22.116 135.168 21.7714 134.552 21.082C133.936 20.378 133.628 19.3514 133.628 18.002V7.59602C133.628 7.14135 133.745 6.79668 133.98 6.56202C134.214 6.32735 134.552 6.21002 134.992 6.21002C135.432 6.21002 135.769 6.32735 136.004 6.56202C136.253 6.79668 136.378 7.14135 136.378 7.59602V17.87C136.378 18.5447 136.517 19.0434 136.796 19.366C137.089 19.6887 137.5 19.85 138.028 19.85C138.145 19.85 138.255 19.85 138.358 19.85C138.46 19.8354 138.563 19.8207 138.666 19.806C138.871 19.7767 139.01 19.8354 139.084 19.982C139.157 20.114 139.194 20.3927 139.194 20.818C139.194 21.1847 139.12 21.4707 138.974 21.676C138.827 21.8814 138.585 22.006 138.248 22.05C138.101 22.0647 137.947 22.0794 137.786 22.094C137.624 22.1087 137.463 22.116 137.302 22.116ZM145.848 22.116C144.63 22.116 143.582 21.8887 142.702 21.434C141.822 20.9794 141.14 20.334 140.656 19.498C140.186 18.662 139.952 17.672 139.952 16.528C139.952 15.4134 140.179 14.438 140.634 13.602C141.103 12.766 141.741 12.1134 142.548 11.644C143.369 11.16 144.3 10.918 145.342 10.918C146.104 10.918 146.786 11.0427 147.388 11.292C148.004 11.5414 148.524 11.9007 148.95 12.37C149.39 12.8394 149.72 13.4114 149.94 14.086C150.174 14.746 150.292 15.494 150.292 16.33C150.292 16.594 150.196 16.7994 150.006 16.946C149.83 17.078 149.573 17.144 149.236 17.144H142.174V15.56H148.356L148.004 15.89C148.004 15.2154 147.901 14.6507 147.696 14.196C147.505 13.7414 147.219 13.3967 146.838 13.162C146.471 12.9127 146.009 12.788 145.452 12.788C144.836 12.788 144.308 12.9347 143.868 13.228C143.442 13.5067 143.112 13.91 142.878 14.438C142.658 14.9514 142.548 15.5674 142.548 16.286V16.44C142.548 17.6427 142.826 18.5447 143.384 19.146C143.956 19.7327 144.792 20.026 145.892 20.026C146.273 20.026 146.698 19.982 147.168 19.894C147.652 19.7914 148.106 19.6227 148.532 19.388C148.84 19.212 149.111 19.1387 149.346 19.168C149.58 19.1827 149.764 19.2634 149.896 19.41C150.042 19.5567 150.13 19.74 150.16 19.96C150.189 20.1654 150.145 20.378 150.028 20.598C149.925 20.818 149.742 21.0087 149.478 21.17C148.964 21.4927 148.37 21.7347 147.696 21.896C147.036 22.0427 146.42 22.116 145.848 22.116Z" fill="#0E0A2F"/>
<defs>
<clipPath id="clip0_56_3248">
<rect width="27.792" height="27.792" rx="6" fill="white"/>
</clipPath>
</defs>
</svg>
